<?xml version="1.0" encoding="utf-8"?>
<!-- Generator: Adobe Illustrator 22.1.0, SVG Export Plug-In . SVG Version: 6.00 Build 0)  -->
<svg version="1.1" id="Calque_1" xmlns="http://www.w3.org/2000/svg" xmlns:xlink="http://www.w3.org/1999/xlink" x="0px" y="0px"
	 viewBox="0 0 3000 3000" style="enable-background:new 0 0 3000 3000;" xml:space="preserve">
<style type="text/css">
	.st0{stroke:#000000;stroke-width:3;stroke-miterlimit:10;}
	.st1{stroke:#000000;stroke-width:2;stroke-miterlimit:10;}
	.st2{fill:url(#SVGID_1_);stroke:#000000;stroke-width:3;stroke-miterlimit:10;}
	.st3{fill:url(#SVGID_2_);stroke:#000000;stroke-width:3;stroke-miterlimit:10;}
	.st4{fill:url(#SVGID_3_);stroke:#000000;stroke-width:3;stroke-miterlimit:10;}
	.st5{fill:url(#SVGID_4_);stroke:#000000;stroke-width:3;stroke-miterlimit:10;}
	.st6{fill:url(#SVGID_5_);stroke:#000000;stroke-width:3;stroke-miterlimit:10;}
	.st7{fill:url(#SVGID_6_);stroke:#000000;stroke-width:3;stroke-miterlimit:10;}
	.st8{fill:url(#SVGID_7_);stroke:#000000;stroke-width:2;stroke-miterlimit:10;}
	.st9{fill:url(#SVGID_8_);stroke:#000000;stroke-width:2;stroke-miterlimit:10;}
	.st10{fill:url(#SVGID_9_);stroke:#000000;stroke-width:2;stroke-miterlimit:10;}
	.st11{fill:#FFFFFF;stroke:#000000;stroke-width:2;stroke-miterlimit:10;}
</style>
<g>
	<path class="st0" d="M491.8,1260.1h-12.7c-1.3,18.2-3.6,47.9-6.8,88.9c-3.3,41-6.2,77.2-8.8,108.5c-1.3,9.1-6.5,13.7-15.6,13.7H355
		c-7.2,0-10.8-3.3-10.8-9.8l1-6.8l7.8-109.5c27.4-403.3,43-615.7,46.9-637.2c2-12.4,7.2-18.6,15.6-18.6h138.8
		c9.8,0,15.6,5.2,17.6,15.6c2.6,33.2,7.5,99.4,14.7,198.4c7.2,99,15.3,208.8,24.4,329.3l15.6,222.8c0.6,5.9,0.3,9.9-1,12.2
		c-1.3,2.3-3.9,3.4-7.8,3.4h-96.8c-9.8,0-15-5.2-15.6-15.6C497,1328.5,492.5,1263.4,491.8,1260.1z M496.7,1130.1
		c-5.2-178.5-8.8-282.1-10.7-310.8c-2.6,31.3-6.5,101.6-11.7,211.1c-2.6,58-4.2,91.2-4.9,99.7c0,4.6,2,6.8,5.9,6.8h17.6
		C496.1,1137,497.3,1134.7,496.7,1130.1z"/>
	<path class="st0" d="M671.6,1307c18.2-16.9,43.6-34.2,76.2-51.8c3.9-3.3,8.8-4.9,14.7-4.9c8.5,0,13.3,4.6,14.7,13.7
		c0.6,9.1,2.9,19.5,6.8,31.3c3.9,11.7,8.5,22.2,13.7,31.3c6.5,10.4,13.4,15.6,20.5,15.6c3.9,0,7.2-1,9.8-2.9
		c8.5-4.6,12.7-11.7,12.7-21.5c0-4.6-1-9.8-2.9-15.6c-16.3-57.3-34.9-110.4-55.7-159.3c-20.9-48.9-45.9-104.9-75.2-168.1
		c-20.2-43-31.6-69.1-34.2-78.2c-7.2-25.4-10.8-48.5-10.8-69.4c0-59.9,27-106.2,81.1-138.8c18.2-10.4,40.1-15.6,65.5-15.6
		c15.6,0,30.6,1.6,45,4.9c16.3,3.9,31.9,13.2,46.9,27.9c15,14.7,25.4,30.8,31.3,48.4l2,11.7c0,3.9-1.1,7.5-3.4,10.8
		c-2.3,3.3-5.1,6.8-8.3,10.7c-9.1,11.1-20.4,23.8-33.7,38.1c-13.4,14.3-23,24.1-28.8,29.3c-3.9,3.9-8.2,5.9-12.7,5.9
		c-5.2,0-9.8-2-13.7-5.9c-0.7-0.6-3.6-8.5-8.8-23.5c-3.9-13.7-6.8-21.5-8.8-23.5c-4.6-5.2-9.8-7.8-15.6-7.8
		c-6.5,0-12.6,2.9-18.1,8.8c-5.5,5.9-8.3,12.4-8.3,19.5c0,4.6,1,8.8,2.9,12.7c11.7,22.2,29,56.7,51.8,103.6
		c22.8,46.9,38.4,79.8,46.9,98.7c15.6,33.9,31.1,75.4,46.4,124.6c15.3,49.2,25.6,95,30.8,137.3c2,16.3,2.9,31.3,2.9,45
		c0,44.9-10.4,78-31.3,99.2c-20.9,21.2-52.1,31.8-93.8,31.8c-54.7,0-94.3-15.6-118.7-46.9c-24.4-31.3-39.3-65.5-44.5-102.6l-1-10.7
		C665.8,1314.9,667.7,1310.3,671.6,1307z"/>
	<path class="st0" d="M1479.9,1443.9c0,11.1-1.3,19.1-3.9,24c-2.6,4.9-8.2,7.3-16.6,7.3c-4.6-0.7-14-0.8-28.3-0.5
		c-14.3,0.3-25.4,0.5-33.2,0.5h-19.5c-13.7,0-20.5-7.8-20.5-23.5c0-48.2,0.3-86.3,1-114.3l1-130v-35.2v-88l-61.6,371.4
		c-1.3,7.8-3.1,12.9-5.4,15.1c-2.3,2.3-5.1,3.4-8.3,3.4l-59.6,1h-8.8c-7.8,0-13.4-1-16.6-2.9c-3.3-2-5.2-6.5-5.9-13.7
		c-1.3-3.9-7.7-42.7-19.1-116.3c-11.4-73.6-20.4-131.6-26.9-174c-2.6-19.5-7.2-49.5-13.7-89.9c2,177.9,2.9,299.7,2.9,365.5
		c0,11.1-1.3,19.1-3.9,24c-2.6,4.9-8.5,7.3-17.6,7.3c-4.6-0.7-13.9-0.8-27.9-0.5c-14,0.3-24.9,0.5-32.7,0.5h-20.5
		c-6.5,0-11.6-2.9-15.1-8.8c-3.6-5.9-5.4-12.7-5.4-20.5c0-48.2,0.3-85.7,1-112.4l1-126.1v-35.2l2-465.2c0-3.9,1.1-7.3,3.4-10.3
		c2.3-2.9,4.4-4.4,6.4-4.4l73.3,1l73.3-1c7.2,0,11.7,1.3,13.7,3.9c1.3,1.3,2.6,5.2,3.9,11.7c2,9.1,5.9,37.1,11.7,84.1
		c3.9,25.4,12.4,84.9,25.4,178.4c13,93.5,20.5,143.8,22.5,151c4.6-28,17.6-122.2,39.1-282.4l18.6-132.9c2-9.1,7.2-13.7,15.6-13.7
		h90.9c2,0,3.6,0.3,4.9,1h43c3.9,0,6.8,0.8,8.8,2.4c2,1.6,2.9,4.7,2.9,9.3L1479.9,1443.9z"/>
	<path class="st0" d="M1681.2,705c0.6,14.3,1,211.8,1,592.2c0,9.1,2.8,19.5,8.3,31.3c5.5,11.7,12.5,17.6,21,17.6
		c10.4,0,17.7-4.6,22-13.7c4.2-9.1,6.3-20.2,6.3-33.2V712.8c0-9.1,0.8-15.3,2.4-18.6c1.6-3.3,6.4-4.9,14.2-4.9h86
		c7.2,0,11.9,1.8,14.2,5.4c2.3,3.6,3.4,9.6,3.4,18.1l2,620.6c0,57.3-15,97.2-45,119.7c-30,22.5-64.2,33.7-102.6,33.7
		c-23.5,0-47.2-5.5-71.3-16.6c-24.1-11.1-44.3-29.2-60.6-54.2c-16.3-25.1-24.4-57.2-24.4-96.3V699.2c0-6.5,5.5-9.8,16.6-9.8h88
		c6.5,0,11.2,1.8,14.2,5.4C1679.7,698.3,1681.2,701.8,1681.2,705z"/>
	<path class="st0" d="M2080.9,1478.1c-53.4,0-90.1-15.3-109.9-45.9c-19.9-30.6-29.8-70.4-29.8-119.2l-1-233.6
		c0-173.3,2-270.1,5.9-290.3c1.3-5.2,3.1-16.8,5.4-34.7c2.3-17.9,11.2-35,26.9-51.3c15.6-16.3,49.8-24.4,102.6-24.4
		c50.8,0,89.4,10.6,115.8,31.8c26.4,21.2,39.6,47.7,39.6,79.6c0,16.3,0.3,28.7,1,37.1l1,39.1v84c0,10.4-2,17.1-5.9,20
		c-3.9,2.9-13.7,4.4-29.3,4.4h-57.7c-7.8,0-12.9-2-15.1-5.9c-2.3-3.9-3.4-11.1-3.4-21.5v-44c0-28-2.4-49.5-7.3-64.5
		c-4.9-15-15.1-22.5-30.8-22.5c-11.7,0-20.2,3.1-25.4,9.3c-5.2,6.2-8.3,15.8-9.3,28.8c-1,13-1.5,35.8-1.5,68.4v366.5
		c0,8.5,3.6,15.6,10.7,21.5c7.2,5.9,16.3,8.8,27.4,8.8c9.8,0,17.4-3.6,23-10.7c5.5-7.2,8.3-15,8.3-23.5v-79.2
		c0-9.8,1.8-16.9,5.4-21.5c3.6-4.6,9.3-6.8,17.1-6.8l69.4,1c8.5,0,14.2,2.1,17.1,6.4c2.9,4.2,4.4,11.6,4.4,22v91.9
		c0,61.2-12.2,106.4-36.7,135.3C2174.2,1463.6,2135,1478.1,2080.9,1478.1z"/>
	<path class="st0" d="M2641.8,1439c0,11.1-1.3,19.1-3.9,23.9c-2.6,4.9-8.5,7.3-17.6,7.3h-82.1c-6.5,0-11.6-2.9-15.1-8.8
		c-3.6-5.9-5.4-12.7-5.4-20.5c0-44.3,0.6-112,2-203.3l-99.7-1c0,76.9,0.2,129,0.5,156.4c0.3,27.4,0.5,42.7,0.5,45.9
		c0,11.1-1.3,19.1-3.9,23.9c-2.6,4.9-8.2,7.3-16.6,7.3h-83.1c-6.5,0-11.6-2.9-15.1-8.8c-3.6-5.9-5.4-12.7-5.4-20.5V703.1
		c0-3.9,1.1-7.3,3.4-10.3c2.3-2.9,4.4-4.4,6.4-4.4h97.7c3.9,0,6.8,0.8,8.8,2.4c2,1.6,2.9,5.1,2.9,10.3c0,91.9,1,229.3,2.9,412.4
		c25.4,0,59,0.7,100.7,2l2-412.4c0-3.9,1.1-7.3,3.4-10.3c2.3-2.9,4.4-4.4,6.4-4.4h92.8c4.6,0,7.8,0.8,9.8,2.4
		c2,1.6,2.9,5.1,2.9,10.3L2641.8,1439z"/>
</g>
<g>
	<path class="st1" d="M883.4,1466.9l70.4,16.4c-11.4,42.7-25.3,84.3-41.7,124.7v374.5h-67.4v-238.2c-11.7,19.9-24.1,39.5-37.2,58.8
		c-4.7-26.5-11.6-58.6-20.6-96.3C829.1,1634,861.3,1554.1,883.4,1466.9z M951.8,1496.6h334.8v68.3h-34.2v313.9
		c0,33.2-6.5,58.4-19.6,75.6c-13.1,17.2-30.8,26.6-53.3,28.1c-22.5,1.5-57.1,2.2-104,2.2c-4-23.6-9-48.7-15.1-75.2
		c20.1,1.2,39,1.9,56.5,1.9c19.3,0,32.7-1.1,40.2-3.2c7.5-2.1,13.7-7.1,18.3-15.1c4.7-7.9,7-18.5,7-31.8v-296.4H951.8V1496.6z
		 M1136.8,1621v228.2h-115.1v36h-62.8V1621H1136.8z M1021.7,1682.4v105.3h52.3v-105.3H1021.7z"/>
	<path class="st1" d="M1750.6,1939.6c-54.6,7.6-103.1,11.4-145.5,11.4c-77.7,0-129.4-11.5-154.9-34.4
		c-25.6-22.9-38.3-48.9-38.3-77.8c0-49.9,36.6-94.9,109.8-135c-8-48.5-12.1-100.5-12.1-155.9c0-26.8,1.1-50.2,3.3-70.1h70.6
		c-1.8,31.6-2.8,59.6-2.8,83.9c0,42,2.6,78.3,7.8,109c59.3-20.1,104.1-33.5,134.5-40.2l27.6,67.2c-46.2,9.2-87.8,20.6-124.7,34.3
		c-36.9,13.7-67.1,28.2-90.6,43.5c-23.5,15.4-38.5,26.4-44.9,33.1c-6.4,6.7-9.6,15-9.6,24.9c0,32.3,35.1,48.4,105.3,48.4
		c37.4,0,88-4.5,152-13.5L1750.6,1939.6z"/>
	<path class="st1" d="M2096.5,1616.5c33.8-0.2,60.6,7.2,80.3,22.1c19.7,14.9,29.5,48,29.5,99.1c0,34.8-2.7,72.5-8,113.3
		c-5.4,40.8-15.7,66.9-31,78.5c-15.3,11.6-31.4,17.3-48.1,17.3c-22.8,0-53.9-14.5-93.2-43.4l23.4-72.8c7,6.5,18.3,14.3,33.9,23.4
		c15.6,9.1,25.7,13.6,30.4,13.6c5.4,0,9-3.1,10.9-9.4c1.9-6.3,4.1-21.4,6.7-45.4c2.5-24,3.8-49,3.8-74.9c0-21.7-1.3-35.7-3.9-42.1
		c-2.6-6.4-16.3-9.5-41.1-9.5c-5.4,0-10.1,0.2-14.1,0.5c-30.2,104.3-63.6,198.2-100.3,281.9l-61.8-37.8
		c31.5-74.5,60-153.2,85.4-236.4c-22.1,2.1-45.2,6.8-69.1,14l-5.5-71.5c30.3-6.5,62.4-12.2,96.3-16.9
		c12.6-41.8,24.9-88.8,36.9-140.8l68.6,20.1C2116,1542.7,2106,1581.7,2096.5,1616.5z M2376.9,1805.7l-58.6,40.5
		c-37.2-77.5-79.6-153.3-127.2-227.6l54.5-35.2C2292.2,1651.5,2335.9,1725.6,2376.9,1805.7z"/>
</g>
<g>
	<linearGradient id="SVGID_1_" gradientUnits="userSpaceOnUse" x1="458.3814" y1="656.684" x2="458.3814" y2="1438.5259">
		<stop  offset="0" style="stop-color:#008CFF"/>
		<stop  offset="1" style="stop-color:#2000A8"/>
	</linearGradient>
	<path class="st2" d="M464.6,1227.4h-12.7c-1.3,18.2-3.6,47.9-6.8,88.9c-3.3,41-6.2,77.2-8.8,108.5c-1.3,9.1-6.5,13.7-15.6,13.7
		h-92.8c-7.2,0-10.8-3.3-10.8-9.8l1-6.8l7.8-109.5c27.4-403.3,43-615.7,46.9-637.2c2-12.4,7.2-18.6,15.6-18.6h138.8
		c9.8,0,15.6,5.2,17.6,15.6c2.6,33.2,7.5,99.4,14.7,198.4c7.2,99,15.3,208.8,24.4,329.3l15.6,222.8c0.6,5.9,0.3,9.9-1,12.2
		c-1.3,2.3-3.9,3.4-7.8,3.4h-96.8c-9.8,0-15-5.2-15.6-15.6C469.8,1295.8,465.2,1230.7,464.6,1227.4z M469.5,1097.4
		c-5.2-178.5-8.8-282.1-10.7-310.8c-2.6,31.3-6.5,101.6-11.7,211.1c-2.6,58-4.2,91.2-4.9,99.7c0,4.6,2,6.8,5.9,6.8h17.6
		C468.8,1104.3,470.1,1102,469.5,1097.4z"/>
	<linearGradient id="SVGID_2_" gradientUnits="userSpaceOnUse" x1="781.2155" y1="640.0718" x2="781.2155" y2="1448.3">
		<stop  offset="0" style="stop-color:#008CFF"/>
		<stop  offset="1" style="stop-color:#2000A8"/>
	</linearGradient>
	<path class="st3" d="M644.4,1274.3c18.2-16.9,43.6-34.2,76.2-51.8c3.9-3.3,8.8-4.9,14.7-4.9c8.5,0,13.3,4.6,14.7,13.7
		c0.6,9.1,2.9,19.5,6.8,31.3c3.9,11.7,8.5,22.2,13.7,31.3c6.5,10.4,13.4,15.6,20.5,15.6c3.9,0,7.2-1,9.8-2.9
		c8.5-4.6,12.7-11.7,12.7-21.5c0-4.6-1-9.8-2.9-15.6c-16.3-57.3-34.9-110.4-55.7-159.3c-20.9-48.9-45.9-104.9-75.2-168.1
		c-20.2-43-31.6-69.1-34.2-78.2c-7.2-25.4-10.8-48.5-10.8-69.4c0-59.9,27-106.2,81.1-138.8c18.2-10.4,40.1-15.6,65.5-15.6
		c15.6,0,30.6,1.6,45,4.9c16.3,3.9,31.9,13.2,46.9,27.9c15,14.7,25.4,30.8,31.3,48.4l2,11.7c0,3.9-1.1,7.5-3.4,10.8
		c-2.3,3.3-5.1,6.8-8.3,10.7c-9.1,11.1-20.4,23.8-33.7,38.1c-13.4,14.3-23,24.1-28.8,29.3c-3.9,3.9-8.2,5.9-12.7,5.9
		c-5.2,0-9.8-2-13.7-5.9c-0.7-0.6-3.6-8.5-8.8-23.5c-3.9-13.7-6.8-21.5-8.8-23.5c-4.6-5.2-9.8-7.8-15.6-7.8
		c-6.5,0-12.6,2.9-18.1,8.8c-5.5,5.9-8.3,12.4-8.3,19.5c0,4.6,1,8.8,2.9,12.7c11.7,22.2,29,56.7,51.8,103.6
		c22.8,46.9,38.4,79.8,46.9,98.7c15.6,33.9,31.1,75.4,46.4,124.6c15.3,49.2,25.6,95,30.8,137.3c2,16.3,2.9,31.3,2.9,45
		c0,44.9-10.4,78-31.3,99.2c-20.9,21.2-52.1,31.8-93.8,31.8c-54.7,0-94.3-15.6-118.7-46.9c-24.4-31.3-39.3-65.5-44.5-102.6l-1-10.7
		C638.5,1282.2,640.5,1277.6,644.4,1274.3z"/>
	<linearGradient id="SVGID_3_" gradientUnits="userSpaceOnUse" x1="1219.5271" y1="659.6153" x2="1219.5271" y2="1442.4275">
		<stop  offset="0" style="stop-color:#008CFF"/>
		<stop  offset="1" style="stop-color:#2000A8"/>
	</linearGradient>
	<path class="st4" d="M1452.6,1411.2c0,11.1-1.3,19.1-3.9,24c-2.6,4.9-8.2,7.3-16.6,7.3c-4.6-0.7-14-0.8-28.3-0.5
		c-14.3,0.3-25.4,0.5-33.2,0.5H1351c-13.7,0-20.5-7.8-20.5-23.5c0-48.2,0.3-86.3,1-114.3l1-130v-35.2v-88l-61.6,371.4
		c-1.3,7.8-3.1,12.9-5.4,15.1c-2.3,2.3-5.1,3.4-8.3,3.4l-59.6,1h-8.8c-7.8,0-13.4-1-16.6-2.9c-3.3-2-5.2-6.5-5.9-13.7
		c-1.3-3.9-7.7-42.7-19.1-116.3c-11.4-73.6-20.4-131.6-26.9-174c-2.6-19.5-7.2-49.5-13.7-89.9c2,177.9,2.9,299.7,2.9,365.5
		c0,11.1-1.3,19.1-3.9,24c-2.6,4.9-8.5,7.3-17.6,7.3c-4.6-0.7-13.9-0.8-27.9-0.5c-14,0.3-24.9,0.5-32.7,0.5H1007
		c-6.5,0-11.6-2.9-15.1-8.8c-3.6-5.9-5.4-12.7-5.4-20.5c0-48.2,0.3-85.7,1-112.4l1-126.1v-35.2l2-465.2c0-3.9,1.1-7.3,3.4-10.3
		c2.3-2.9,4.4-4.4,6.4-4.4l73.3,1l73.3-1c7.2,0,11.7,1.3,13.7,3.9c1.3,1.3,2.6,5.2,3.9,11.7c2,9.1,5.9,37.1,11.7,84.1
		c3.9,25.4,12.4,84.9,25.4,178.4c13,93.5,20.5,143.8,22.5,151c4.6-28,17.6-122.2,39.1-282.4l18.6-132.9c2-9.1,7.2-13.7,15.6-13.7
		h90.9c2,0,3.6,0.3,4.9,1h43c3.9,0,6.8,0.8,8.8,2.4c2,1.6,2.9,4.7,2.9,9.3L1452.6,1411.2z"/>
	<linearGradient id="SVGID_4_" gradientUnits="userSpaceOnUse" x1="1682.7595" y1="656.684" x2="1682.7595" y2="1454.1627">
		<stop  offset="0" style="stop-color:#008CFF"/>
		<stop  offset="1" style="stop-color:#2000A8"/>
	</linearGradient>
	<path class="st5" d="M1653.9,672.3c0.6,14.3,1,211.8,1,592.2c0,9.1,2.8,19.5,8.3,31.3c5.5,11.7,12.5,17.6,21,17.6
		c10.4,0,17.7-4.6,22-13.7c4.2-9.1,6.3-20.2,6.3-33.2V680.1c0-9.1,0.8-15.3,2.4-18.6c1.6-3.3,6.4-4.9,14.2-4.9h86
		c7.2,0,11.9,1.8,14.2,5.4c2.3,3.6,3.4,9.6,3.4,18.1l2,620.6c0,57.3-15,97.2-45,119.7c-30,22.5-64.2,33.7-102.6,33.7
		c-23.5,0-47.2-5.5-71.3-16.6c-24.1-11.1-44.3-29.2-60.6-54.2c-16.3-25.1-24.4-57.2-24.4-96.3V666.5c0-6.5,5.5-9.8,16.6-9.8h88
		c6.5,0,11.2,1.8,14.2,5.4C1652.5,665.6,1653.9,669.1,1653.9,672.3z"/>
	<linearGradient id="SVGID_5_" gradientUnits="userSpaceOnUse" x1="2061.9404" y1="645.9343" x2="2061.9404" y2="1445.3588">
		<stop  offset="0" style="stop-color:#008CFF"/>
		<stop  offset="1" style="stop-color:#2000A8"/>
	</linearGradient>
	<path class="st6" d="M2053.6,1445.4c-53.4,0-90.1-15.3-109.9-45.9c-19.9-30.6-29.8-70.4-29.8-119.2l-1-233.6
		c0-173.3,2-270.1,5.9-290.3c1.3-5.2,3.1-16.8,5.4-34.7c2.3-17.9,11.2-35,26.9-51.3c15.6-16.3,49.8-24.4,102.6-24.4
		c50.8,0,89.4,10.6,115.8,31.8c26.4,21.2,39.6,47.7,39.6,79.6c0,16.3,0.3,28.7,1,37.1l1,39.1v84c0,10.4-2,17.1-5.9,20
		c-3.9,2.9-13.7,4.4-29.3,4.4h-57.7c-7.8,0-12.9-2-15.1-5.9c-2.3-3.9-3.4-11.1-3.4-21.5v-44c0-28-2.4-49.5-7.3-64.5
		c-4.9-15-15.1-22.5-30.8-22.5c-11.7,0-20.2,3.1-25.4,9.3c-5.2,6.2-8.3,15.8-9.3,28.8c-1,13-1.5,35.8-1.5,68.4v366.5
		c0,8.5,3.6,15.6,10.7,21.5c7.2,5.9,16.3,8.8,27.4,8.8c9.8,0,17.4-3.6,23-10.7c5.5-7.2,8.3-15,8.3-23.5v-79.2
		c0-9.8,1.8-16.9,5.4-21.5c3.6-4.6,9.3-6.8,17.1-6.8l69.4,1c8.5,0,14.2,2.1,17.1,6.4c2.9,4.2,4.4,11.6,4.4,22v91.9
		c0,61.2-12.2,106.4-36.7,135.3C2147,1430.9,2107.7,1445.4,2053.6,1445.4z"/>
	<linearGradient id="SVGID_6_" gradientUnits="userSpaceOnUse" x1="2442.1016" y1="655.7086" x2="2442.1016" y2="1437.5454">
		<stop  offset="0" style="stop-color:#008CFF"/>
		<stop  offset="1" style="stop-color:#2000A8"/>
	</linearGradient>
	<path class="st7" d="M2614.6,1406.3c0,11.1-1.3,19.1-3.9,23.9c-2.6,4.9-8.5,7.3-17.6,7.3H2511c-6.5,0-11.6-2.9-15.1-8.8
		c-3.6-5.9-5.4-12.7-5.4-20.5c0-44.3,0.6-112,2-203.3l-99.7-1c0,76.9,0.2,129,0.5,156.4c0.3,27.4,0.5,42.7,0.5,45.9
		c0,11.1-1.3,19.1-3.9,23.9c-2.6,4.9-8.2,7.3-16.6,7.3h-83.1c-6.5,0-11.6-2.9-15.1-8.8c-3.6-5.9-5.4-12.7-5.4-20.5V670.4
		c0-3.9,1.1-7.3,3.4-10.3c2.3-2.9,4.4-4.4,6.4-4.4h97.7c3.9,0,6.8,0.8,8.8,2.4c2,1.6,2.9,5.1,2.9,10.3c0,91.9,1,229.3,2.9,412.4
		c25.4,0,59,0.7,100.7,2l2-412.4c0-3.9,1.1-7.3,3.4-10.3c2.3-2.9,4.4-4.4,6.4-4.4h92.8c4.6,0,7.8,0.8,9.8,2.4
		c2,1.6,2.9,5.1,2.9,10.3L2614.6,1406.3z"/>
</g>
<g>
	<linearGradient id="SVGID_7_" gradientUnits="userSpaceOnUse" x1="765.1249" y1="1682.1899" x2="1264.7463" y2="1682.1899">
		<stop  offset="0" style="stop-color:#FBB03B"/>
		<stop  offset="1" style="stop-color:#FF4200"/>
	</linearGradient>
	<path class="st8" d="M861.6,1423.3l70.4,16.4c-11.4,42.7-25.3,84.3-41.7,124.7v374.5h-67.4v-238.2c-11.7,19.9-24.1,39.5-37.2,58.8
		c-4.7-26.5-11.6-58.6-20.6-96.3C807.3,1590.4,839.5,1510.5,861.6,1423.3z M930,1453h334.8v68.3h-34.2v313.9
		c0,33.2-6.5,58.4-19.6,75.6c-13.1,17.2-30.8,26.6-53.3,28.1c-22.5,1.5-57.1,2.2-104,2.2c-4-23.6-9-48.7-15.1-75.2
		c20.1,1.2,39,1.9,56.5,1.9c19.3,0,32.7-1.1,40.2-3.2c7.5-2.1,13.7-7.1,18.3-15.1c4.7-7.9,7-18.5,7-31.8v-296.4H930V1453z
		 M1115,1577.4v228.2H999.9v36H937v-264.1H1115z M999.9,1638.8v105.3h52.3v-105.3H999.9z"/>
	<linearGradient id="SVGID_8_" gradientUnits="userSpaceOnUse" x1="1389.9943" y1="1670.8088" x2="1728.7719" y2="1670.8088">
		<stop  offset="0" style="stop-color:#FBB03B"/>
		<stop  offset="1" style="stop-color:#FF4200"/>
	</linearGradient>
	<path class="st9" d="M1728.8,1896c-54.6,7.6-103.1,11.4-145.5,11.4c-77.7,0-129.4-11.5-154.9-34.4c-25.6-22.9-38.3-48.9-38.3-77.8
		c0-49.9,36.6-94.9,109.8-135c-8-48.5-12.1-100.5-12.1-155.9c0-26.8,1.1-50.2,3.3-70.1h70.6c-1.8,31.6-2.8,59.6-2.8,83.9
		c0,42,2.6,78.3,7.8,109c59.3-20.1,104.1-33.5,134.5-40.2l27.6,67.2c-46.2,9.2-87.8,20.6-124.7,34.3c-36.9,13.7-67.1,28.2-90.6,43.5
		c-23.5,15.4-38.5,26.4-44.9,33.1c-6.4,6.7-9.6,15-9.6,24.9c0,32.3,35.1,48.4,105.3,48.4c37.4,0,88-4.5,152-13.5L1728.8,1896z"/>
	<linearGradient id="SVGID_9_" gradientUnits="userSpaceOnUse" x1="1891.9677" y1="1680.4695" x2="2355.1477" y2="1680.4695">
		<stop  offset="0" style="stop-color:#FBB03B"/>
		<stop  offset="1" style="stop-color:#FF4200"/>
	</linearGradient>
	<path class="st10" d="M2074.7,1572.9c33.8-0.2,60.6,7.2,80.3,22.1c19.7,14.9,29.5,48,29.5,99.1c0,34.8-2.7,72.5-8,113.3
		c-5.4,40.8-15.7,66.9-31,78.5c-15.3,11.6-31.4,17.3-48.1,17.3c-22.8,0-53.9-14.5-93.2-43.4l23.4-72.8c7,6.5,18.3,14.3,33.9,23.4
		c15.6,9.1,25.7,13.6,30.4,13.6c5.4,0,9-3.1,10.9-9.4c1.9-6.3,4.1-21.4,6.7-45.4c2.5-24,3.8-49,3.8-74.9c0-21.7-1.3-35.7-3.9-42.1
		c-2.6-6.4-16.3-9.5-41.1-9.5c-5.4,0-10.1,0.2-14.1,0.5c-30.2,104.3-63.6,198.2-100.3,281.9l-61.8-37.8
		c31.5-74.5,60-153.2,85.4-236.4c-22.1,2.1-45.2,6.8-69.1,14l-5.5-71.5c30.3-6.5,62.4-12.2,96.3-16.9
		c12.6-41.8,24.9-88.8,36.9-140.8l68.6,20.1C2094.2,1499.1,2084.2,1538.1,2074.7,1572.9z M2355.1,1762.1l-58.6,40.5
		c-37.2-77.5-79.6-153.3-127.2-227.6l54.5-35.2C2270.4,1607.9,2314.1,1682,2355.1,1762.1z"/>
</g>
<path class="st11" d="M2554.4,1220.4l6.8-11.2c0.5-0.9,1.3-1.6,2.5-2.2c1.2-0.6,2.3-0.9,3.2-0.9h23c1.2,0,1.8,0.5,1.8,1.4
	c0,0.6-0.2,1.2-0.7,1.8l-20.9,29.9l22.4,32.7c0.5,0.6,0.7,1.2,0.7,1.8c0,0.9-0.6,1.4-1.8,1.4h-23c-0.9,0-2-0.3-3.1-0.9
	c-1.1-0.6-2-1.4-2.7-2.2l-8.2-13.9l-8.3,13.9c-0.6,0.9-1.5,1.6-2.6,2.2c-1.1,0.6-2.2,0.9-3.1,0.9h-23c-1.3,0-1.9-0.5-1.9-1.4
	c0-0.5,0.3-1.1,0.8-1.8l22.4-32.8l-20.9-29.8c-0.5-0.6-0.7-1.2-0.7-1.8c0-0.9,0.6-1.4,1.7-1.4h23.1c0.9,0,2,0.3,3.2,0.9
	c1.2,0.6,2,1.4,2.6,2.2L2554.4,1220.4z"/>
<path class="st11" d="M2567.7,1326.4v20.2c0,0.9-0.3,1.6-1,2.2c-0.7,0.6-1.5,0.9-2.4,0.9h-20.1c-0.9,0-1.7-0.3-2.4-0.9
	c-0.7-0.6-1-1.4-1-2.2v-20.1l-23.7-42.5c-0.3-0.5-0.4-1-0.4-1.4c0-1.2,0.7-1.8,2.1-1.8h20.1c0.9,0,1.9,0.3,3,0.9
	c1,0.6,1.8,1.4,2.2,2.2l10.2,18.3l10.2-18.3c0.5-0.9,1.3-1.6,2.3-2.2c1-0.6,2-0.9,2.9-0.9h20.1c1.4,0,2.1,0.6,2.1,1.7
	c0,0.4-0.2,0.9-0.5,1.5L2567.7,1326.4z"/>
<path class="st11" d="M2522.2,1406.9c0-0.7,0.3-1.4,0.8-2.1l32-35.6h-28.5c-0.9,0-1.7-0.3-2.4-0.9c-0.7-0.6-1-1.4-1-2.2v-10.9
	c0-0.9,0.3-1.6,1-2.2c0.7-0.6,1.5-0.9,2.4-0.9h55c0.9,0,1.7,0.3,2.4,0.9c0.7,0.6,1,1.4,1,2.2v10.9c0,1-0.4,1.8-1.3,2.4l-31.7,35.2
	h31.2c0.9,0,1.7,0.3,2.4,0.9c0.7,0.6,1,1.4,1,2.2v10.8c0,0.9-0.3,1.6-1,2.2c-0.7,0.6-1.5,0.9-2.4,0.9h-57.5c-0.9,0-1.7-0.3-2.4-0.9
	c-0.7-0.6-1-1.4-1-2.2V1406.9z"/>
<g>
</g>
<g>
</g>
<g>
</g>
<g>
</g>
<g>
</g>
<g>
</g>
<g>
</g>
<g>
</g>
<g>
</g>
<g>
</g>
<g>
</g>
<g>
</g>
<g>
</g>
<g>
</g>
<g>
</g>
</svg>
